{"title":"Adventure Time S07E05 Football HDTV x264","uid":12708436,"size":46261931,"categoryP":"video","categoryS":"tv_shows","magnet":"?xt=urn:btih:f281c0ea62b006a117db1b47a6ec25c0c6d51d0b&amp;dn=Adventure+Time+S07E05+Football+HDTV+x264&amp;tr=udp%3A%2F%2Ftracker.leechers-paradise.org%3A6969&amp;tr=udp%3A%2F%2Fzer0day.ch%3A1337&amp;tr=udp%3A%2F%2Fopen.demonii.com%3A1337&amp;tr=udp%3A%2F%2Ftracker.coppersurfer.tk%3A6969&amp;tr=udp%3A%2F%2Fexodus.desync.com%3A6969","seeders":27,"leechers":1,"uploader":"TheRival","files":4,"time":1446865848,"description":"Video\r\nID                                       : 1\r\nFormat                                   : AVC\r\nFormat/Info                              : Advanced Video Codec\r\nFormat profile                           :   \r\nFormat settings, CABAC                   : Yes\r\nFormat settings, ReFrames                : 10 frames\r\nCodec ID                                 : avc1\r\nCodec ID/Info                            : Advanced Video Coding\r\nDuration                                 : 11mn 12s\r\nBit rate                                 : 392 Kbps\r\nMaximum bit rate                         : 4 718 Kbps\r\nWidth                                    : 720 pixels\r\nHeight                                   : 404 pixels\r\nDisplay aspect ratio                     : 16:9\r\nFrame rate mode                          : Constant\r\nFrame rate                               : 23.976 fps\r\nColor space                              : YUV\r\nChroma subsampling                       : 4:2:0\r\nBit depth                                : 8 bits\r\nScan type                                : Progressive\r\nBits/(Pixel*Frame)                       : 0.056\r\nStream size                              : 31.4 MiB (77%)\r\nWriting library                          : x264 core 148 r2638 7599210\r\nEncoding settings                        : cabac=1 / ref=10 / deblock=1:1:1 / analyse=0x3:0x113 / me=umh / subme=8 / psy=1 / psy_rd=0.40:0.00 / mixed_ref=1 / me_range=16 / chroma_me=1 / trellis=1 / 8x8dct=1 / cqm=0 / deadzone=21,11 / fast_pskip=1 / chroma_qp_offset=-2 / threads=12 / lookahead_threads=3 / sliced_threads=0 / nr=0 / decimate=1 / interlaced=0 / bluray_compat=0 / constrained_intra=0 / bframes=5 / b_pyramid=2 / b_adapt=2 / b_bias=0 / direct=3 / weightb=1 / open_gop=0 / weightp=2 / keyint=250 / keyint_min=25 / scenecut=40 / intra_refresh=0 / rc_lookahead=50 / rc=crf / mbtree=1 / crf=19.0 / qcomp=0.60 / qpmin=0 / qpmax=69 / qpstep=4 / ip_ratio=1.40 / aq=1:0.60\r\nEncoded date                             : UTC 2015-11-07 01:20:12\r\nTagged date                              : UTC 2015-11-07 01:20:14\r\nColor range                              : Limited\r\nMatrix coefficients                      : BT.709\r\n\r\nAudio\r\nID                                       : 2\r\nFormat                                   : AAC\r\nFormat/Info                              : Advanced Audio Codec\r\nFormat profile                           : LC\r\nCodec ID                                 : 40\r\nDuration                                 : 11mn 12s\r\nBit rate mode                            : Variable\r\nBit rate                                 : 115 Kbps\r\nMaximum bit rate                         : 152 Kbps\r\nChannel(s)                               : 2 channels\r\nChannel positions                        : Front: L R\r\nSampling rate                            : 48.0 KHz\r\nCompression mode                         : Lossy\r\nStream size                              : 9.20 MiB (22%)\r\nLanguage                                 : English\r\nEncoded date                             : UTC 2015-11-07 01:20:14\r\nTagged date                              : UTC 2015-11-07 01:20:14\r\n\r\nText\r\nID                                       : 3\r\nFormat                                   : Timed Text\r\nCodec ID                                 : tx3g\r\nDuration                                 : 11mn 13s\r\nBit rate mode                            : Variable\r\nBit rate                                 : 126 bps\r\nStream size                              : 10.3 KiB (0%)\r\nLanguage                                 : English\r\nEncoded date                             : UTC 2015-11-07 01:20:14\r\nTagged date                              : UTC 2015-11-07 01:20:14","torrent":{"xt":"urn:btih:f281c0ea62b006a117db1b47a6ec25c0c6d51d0b","amp;dn":"Adventure+Time+S07E05+Football+HDTV+x264","amp;tr":["udp%3A%2F%2Ftracker.leechers-paradise.org%3A6969","udp%3A%2F%2Fzer0day.ch%3A1337","udp%3A%2F%2Fopen.demonii.com%3A1337","udp%3A%2F%2Ftracker.coppersurfer.tk%3A6969","udp%3A%2F%2Fexodus.desync.com%3A6969"],"infoHash":"f281c0ea62b006a117db1b47a6ec25c0c6d51d0b","infoHashBuffer":{"type":"Buffer","data":[242,129,192,234,98,176,6,161,23,219,27,71,166,236,37,192,198,213,29,11]},"announce":[],"urlList":[]}}